<svg width="22" height="25" viewBox="0 0 22 25" fill="none" xmlns="http://www.w3.org/2000/svg">
<path d="M11 19.7C9.88 19.7 8.81 19.875 7.79 20.225C6.77 20.575 5.84 21.1 5 21.8V22.1H17V21.8C16.16 21.1 15.23 20.575 14.21 20.225C13.19 19.875 12.12 19.7 11 19.7ZM2.6 20.72C3.68 19.66 4.935 18.825 6.365 18.215C7.795 17.605 9.34 17.3 11 17.3C12.66 17.3 14.205 17.605 15.635 18.215C17.065 18.825 18.32 19.66 19.4 20.72V5.3H2.6V20.72ZM11 14.9C9.84 14.9 8.85 14.49 8.03 13.67C7.21 12.85 6.8 11.86 6.8 10.7C6.8 9.54 7.21 8.55 8.03 7.73C8.85 6.91 9.84 6.5 11 6.5C12.16 6.5 13.15 6.91 13.97 7.73C14.79 8.55 15.2 9.54 15.2 10.7C15.2 11.86 14.79 12.85 13.97 13.67C13.15 14.49 12.16 14.9 11 14.9ZM11 12.5C11.5 12.5 11.925 12.325 12.275 11.975C12.625 11.625 12.8 11.2 12.8 10.7C12.8 10.2 12.625 9.775 12.275 9.425C11.925 9.075 11.5 8.9 11 8.9C10.5 8.9 10.075 9.075 9.725 9.425C9.375 9.775 9.2 10.2 9.2 10.7C9.2 11.2 9.375 11.625 9.725 11.975C10.075 12.325 10.5 12.5 11 12.5ZM2.6 24.5C1.94 24.5 1.375 24.265 0.904997 23.795C0.434997 23.325 0.199997 22.76 0.199997 22.1V5.3C0.199997 4.64 0.434997 4.075 0.904997 3.605C1.375 3.135 1.94 2.9 2.6 2.9H3.8V1.7C3.8 1.03726 4.33726 0.5 5 0.5C5.66274 0.5 6.2 1.03726 6.2 1.7V2.9H15.8V1.7C15.8 1.03726 16.3373 0.5 17 0.5C17.6627 0.5 18.2 1.03726 18.2 1.7V2.9H19.4C20.06 2.9 20.625 3.135 21.095 3.605C21.565 4.075 21.8 4.64 21.8 5.3V22.1C21.8 22.76 21.565 23.325 21.095 23.795C20.625 24.265 20.06 24.5 19.4 24.5H2.6Z" fill="#CDCDCD"/>
</svg>
