<svg width="33" height="40" viewBox="0 0 33 40" fill="none" xmlns="http://www.w3.org/2000/svg">
<path d="M22.9433 0.821777H15.8552V8.97655H22.9433V0.821777Z" fill="#2A3647"/>
<path d="M15.8558 15.6089H22.9439V27.1099C22.9763 29.8774 22.1887 32.592 20.6812 34.9087C19.1927 37.1596 16.3193 39.8377 11.0032 39.8377C5.21273 39.8377 1.8377 37.0994 0.0166016 35.5988L4.48756 30.0837C6.26504 31.5351 7.9771 32.729 11.0304 32.729C13.3422 32.729 14.2637 31.787 14.8035 30.9655C15.5373 29.8244 15.9169 28.49 15.894 27.1318L15.8558 15.6089Z" fill="#2A3647"/>
<path d="M12.2406 10.4607H5.15247V17.5804H12.2406V10.4607Z" fill="#29ABE2"/>
<path d="M26.6573 36.4966C26.6573 38.0136 25.8885 38.8297 24.8144 38.8297C23.7403 38.8297 23.0369 37.8603 23.0369 36.5733C23.0369 35.2862 23.7621 34.2676 24.8744 34.2676C25.9867 34.2676 26.6573 35.2698 26.6573 36.4966ZM23.8602 36.5568C23.8602 37.4714 24.2255 38.1451 24.8526 38.1451C25.4796 38.1451 25.834 37.4331 25.834 36.5021C25.834 35.686 25.5069 34.9193 24.8526 34.9193C24.1983 34.9193 23.8602 35.6587 23.8602 36.5568Z" fill="#2A3647"/>
<path d="M28.0641 34.3337V38.7589H27.2789V34.3337H28.0641Z" fill="#2A3647"/>
<path d="M28.9141 38.7589V34.3337H29.7864L30.7243 36.1575C30.9657 36.6343 31.1805 37.1244 31.3676 37.6252C31.3186 37.0776 31.2968 36.4477 31.2968 35.7467V34.3337H32.0165V38.7589H31.2041L30.2554 36.8968C30.0042 36.4077 29.7803 35.9049 29.5847 35.3907C29.5847 35.9384 29.6229 36.5573 29.6229 37.3185V38.7534L28.9141 38.7589Z" fill="#2A3647"/>
</svg>
