<svg width="20" height="20" viewBox="0 0 20 20" fill="none" xmlns="http://www.w3.org/2000/svg">
<path d="M11.0833 19.7499C10.7764 19.7499 10.5191 19.6461 10.3115 19.4385C10.1038 19.2308 10 18.9736 10 18.6666C10 18.3597 10.1038 18.1024 10.3115 17.8947C10.5191 17.6871 10.7764 17.5833 11.0833 17.5833H17.5833V2.41661H11.0833C10.7764 2.41661 10.5191 2.31279 10.3115 2.10515C10.1038 1.89751 10 1.64022 10 1.33327C10 1.02633 10.1038 0.769036 10.3115 0.561397C10.5191 0.353758 10.7764 0.249939 11.0833 0.249939H17.5833C18.1792 0.249939 18.6892 0.462092 19.1135 0.886397C19.5378 1.3107 19.75 1.82077 19.75 2.41661V17.5833C19.75 18.1791 19.5378 18.6892 19.1135 19.1135C18.6892 19.5378 18.1792 19.7499 17.5833 19.7499H11.0833ZM9.10625 11.0833H1.33333C1.02639 11.0833 0.769097 10.9795 0.561458 10.7718C0.353819 10.5642 0.25 10.3069 0.25 9.99994C0.25 9.693 0.353819 9.4357 0.561458 9.22806C0.769097 9.02043 1.02639 8.91661 1.33333 8.91661H9.10625L7.075 6.88536C6.87639 6.68674 6.77708 6.443 6.77708 6.15411C6.77708 5.86522 6.87639 5.61244 7.075 5.39577C7.27361 5.17911 7.52639 5.06626 7.83333 5.05723C8.14028 5.0482 8.40208 5.15202 8.61875 5.36869L12.4917 9.24161C12.7083 9.45827 12.8167 9.71105 12.8167 9.99994C12.8167 10.2888 12.7083 10.5416 12.4917 10.7583L8.61875 14.6312C8.40208 14.8479 8.14479 14.9517 7.84688 14.9426C7.54896 14.9336 7.29167 14.8208 7.075 14.6041C6.87639 14.3874 6.7816 14.1301 6.79063 13.8322C6.79965 13.5343 6.90347 13.2861 7.10208 13.0874L9.10625 11.0833Z" fill="#CDCDCD"/>
</svg>
