<svg width="20" height="21" viewBox="0 0 20 21" fill="none" xmlns="http://www.w3.org/2000/svg">
<path d="M18.1818 0.5H1.81818C0.814027 0.5 0 1.31498 0 2.31914C0 2.3449 0 2.36298 0 2.37198V18.7356C0 19.7101 0.790887 20.5 1.76533 20.5C1.79099 20.5 1.80908 20.5 1.81818 20.5H18.1818C18.1909 20.5 18.209 20.5 18.2347 20.5C19.2091 20.5 20 19.7101 20 18.7356V2.37195C20 2.36296 20 2.34488 20 2.31914C20 1.31498 19.186 0.5 18.1818 0.5ZM11.8182 18.7356H1.81818V11.4629H11.8182V18.7356ZM11.8182 9.64468H1.81818V2.37198L11.8182 2.37195V9.64468ZM18.1818 18.7356H13.6364V2.37198H18.1818V18.7356Z" fill="white"/>
</svg>
